<svg xmlns="http://www.w3.org/2000/svg" version="1.1" xmlns:xlink="http://www.w3.org/1999/xlink" xmlns:svgjs="http://svgjs.dev/svgjs" width="1500" height="935" viewBox="0 0 1500 935"><g transform="matrix(1,0,0,1,-0.9090909090909918,0.3785425101214628)"><svg viewBox="0 0 396 247" data-background-color="#4d4c51" preserveAspectRatio="xMidYMid meet" height="935" width="1500" xmlns="http://www.w3.org/2000/svg" xmlns:xlink="http://www.w3.org/1999/xlink"><g id="tight-bounds" transform="matrix(1,0,0,1,0.2400000000000091,-0.09999999999999432)"><svg viewBox="0 0 395.52 247.2" height="247.2" width="395.52"><g><svg></svg></g><g><svg viewBox="0 0 395.52 247.2" height="247.2" width="395.52"><g><path d="M55.039 247.2l26.403-45.732 2.455 0-25.109 43.49h277.944l-25.109-43.49 2.455 0 26.403 45.732zM197.76 0l26.403 45.732-2.454 0-23.949-41.481-23.949 41.481-2.454 0z" fill="#ff4057" fill-rule="nonzero" stroke="none" stroke-width="1" stroke-linecap="butt" stroke-linejoin="miter" stroke-miterlimit="10" stroke-dasharray="" stroke-dashoffset="0" font-family="none" font-weight="none" font-size="none" text-anchor="none" style="mix-blend-mode: normal" data-fill-palette-color="tertiary"></path></g><g transform="matrix(1,0,0,1,34.729123901002566,67.97999999999999)"><svg viewBox="0 0 326.06175219799485 111.24" height="111.24" width="326.06175219799485"><g><svg viewBox="0 0 660.3633265273904 225.29111724303203" height="111.24" width="326.06175219799485"><g transform="matrix(1,0,0,1,0,53.0851337481534)"><svg viewBox="0 0 397.4975999999999 119.12084974672523" height="119.12084974672523" width="397.4975999999999"><g id="textblocktransform"><svg viewBox="0 0 397.4975999999999 119.12084974672523" height="119.12084974672523" width="397.4975999999999" id="textblock"><g><rect width="397.4975999999999" height="6.575064115863162" x="0" y="80.65510707573841" fill="#ff4057" opacity="1" stroke-width="0" stroke="transparent" fill-opacity="1" class="rect-qz-0" data-fill-palette-color="primary" rx="1%" id="qz-0" data-palette-color="#ff4057"></rect></g><g transform="matrix(1,0,0,1,0.9887999999999693,0)"><svg viewBox="0 0 395.52 72.9096126984127" height="72.9096126984127" width="395.52"><g transform="matrix(1,0,0,1,0,0)"><svg width="395.52" viewBox="3.85 -33.7 236.23000000000002 43.550000000000004" height="72.9096126984127" data-palette-color="#ff4057"><path d="M28.3-33.7L28.3 0 24.25 0 24.25-15.25 7.9-15.25 7.9 0 3.85 0 3.85-33.7 7.9-33.7 7.9-18.9 24.25-18.9 24.25-33.7 28.3-33.7ZM43.55-3.05L43.55-3.05Q46.25-3.05 47.85-4.58 49.45-6.1 49.45-8.45L49.45-8.45 49.45-11.7 45.05-11.7Q41.85-11.7 40.25-10.45 38.65-9.2 38.65-7.3 38.65-5.4 39.9-4.23 41.15-3.05 43.55-3.05ZM49.5 0L49.5-3Q47.55 0.25 42.4 0.25L42.4 0.25Q38.85 0.25 36.67-1.85 34.5-3.95 34.5-7.15L34.5-7.15Q34.5-10.8 37.27-12.83 40.05-14.85 44.85-14.85L44.85-14.85 49.45-14.85 49.45-16.15Q49.45-19.15 48.1-20.68 46.75-22.2 43.55-22.2L43.55-22.2Q39.5-22.2 36.35-20.05L36.35-20.05 36.35-24Q39.2-25.75 43.85-25.75L43.85-25.75Q53.4-25.75 53.4-16.05L53.4-16.05 53.4 0 49.5 0ZM64.3-3.85L64.3 9.85 60.4 9.85 60.4-25.35 64.3-25.35 64.3-21.5Q66.95-25.75 72.15-25.75L72.15-25.75Q77.2-25.75 80.07-22.08 82.95-18.4 82.95-12.9L82.95-12.9Q82.95-7.05 79.92-3.33 76.9 0.4 72.05 0.4L72.05 0.4Q67.05 0.4 64.3-3.85L64.3-3.85ZM64.3-12.65L64.3-12.65Q64.3-7.8 66.55-5.5 68.8-3.2 71.55-3.2L71.55-3.2Q74.75-3.2 76.8-5.73 78.84-8.25 78.84-12.9L78.84-12.9Q78.84-17.05 76.84-19.6 74.84-22.15 71.8-22.15 68.75-22.15 66.52-19.93 64.3-17.7 64.3-12.65ZM92.64-3.85L92.64 9.85 88.74 9.85 88.74-25.35 92.64-25.35 92.64-21.5Q95.29-25.75 100.49-25.75L100.49-25.75Q105.54-25.75 108.42-22.08 111.29-18.4 111.29-12.9L111.29-12.9Q111.29-7.05 108.27-3.33 105.24 0.4 100.39 0.4L100.39 0.4Q95.39 0.4 92.64-3.85L92.64-3.85ZM92.64-12.65L92.64-12.65Q92.64-7.8 94.89-5.5 97.14-3.2 99.89-3.2L99.89-3.2Q103.09-3.2 105.14-5.73 107.19-8.25 107.19-12.9L107.19-12.9Q107.19-17.05 105.19-19.6 103.19-22.15 100.14-22.15 97.09-22.15 94.87-19.93 92.64-17.7 92.64-12.65ZM137.24-25.35L128.09-0.65Q126.14 4.5 123.47 6.6 120.79 8.7 117.34 8.7L117.34 8.7Q116.04 8.7 115.24 8.45L115.24 8.45 115.24 4.9Q115.99 5.1 116.94 5.1L116.94 5.1Q121.99 5.1 124.09-0.65L124.09-0.65 113.84-25.35 118.29-25.35 121.59-17 126.04-5.5Q126.44-6.8 130.04-17L130.04-17 132.99-25.35 137.24-25.35ZM162.49-12.4L162.49-12.4 157.29-12.4 157.29 0 153.24 0 153.24-33.7 162.09-33.7Q167.94-33.7 171.31-30.68 174.69-27.65 174.69-22.85L174.69-22.85Q174.69-18.35 171.34-15.38 167.99-12.4 162.49-12.4ZM162.14-30.25L162.14-30.25 157.29-30.25 157.29-15.85 162.49-15.85Q166.29-15.85 168.44-17.82 170.59-19.8 170.59-22.85L170.59-22.85Q170.59-26.25 168.39-28.25 166.19-30.25 162.14-30.25ZM198.78-5L198.78-1.3Q195.83 0.25 191.58 0.25L191.58 0.25Q185.83 0.25 182.31-3.28 178.78-6.8 178.78-12.6L178.78-12.6Q178.78-18.65 181.93-22.15 185.08-25.65 190.03-25.65L190.03-25.65Q194.78-25.65 197.58-22.6 200.38-19.55 200.38-13.95L200.38-13.95Q200.38-12.35 200.13-11L200.13-11 182.83-11Q183.28-7.25 185.68-5.25 188.08-3.25 191.98-3.25L191.98-3.25Q196.23-3.25 198.78-5L198.78-5ZM190.03-22.2L190.03-22.2Q187.18-22.2 185.18-20.15 183.18-18.1 182.83-14.3L182.83-14.3 196.43-14.3 196.43-15.3Q196.43-18.45 194.73-20.33 193.03-22.2 190.03-22.2ZM219.08-4.4L219.08-0.65Q217.43 0.25 215.38 0.25L215.38 0.25Q207.88 0.25 207.88-7.4L207.88-7.4 207.88-22.15 203.83-22.15 203.83-25.35 207.88-25.35 207.88-31.65 211.83-31.65 211.83-25.35 218.83-25.35 218.83-22.15 211.83-22.15 211.83-7.3Q211.83-3.25 215.63-3.25L215.63-3.25Q217.58-3.25 219.08-4.4L219.08-4.4ZM240.08-6.75L240.08-6.75Q240.08-3.5 237.8-1.6 235.53 0.3 231.58 0.3L231.58 0.3Q226.98 0.3 224.13-1.25L224.13-1.25 224.13-5.1Q227.48-3.1 231.33-3.1L231.33-3.1Q233.63-3.1 234.83-4 236.03-4.9 236.03-6.45L236.03-6.45Q236.03-8.25 234.7-9.25 233.38-10.25 230.28-11.5L230.28-11.5Q227.43-12.6 225.7-14.25 223.98-15.9 223.98-18.7L223.98-18.7Q223.98-21.85 226.35-23.73 228.73-25.6 232.28-25.6L232.28-25.6Q236.23-25.6 238.63-24.5L238.63-24.5 238.63-20.75Q236.33-22.15 232.33-22.15L232.33-22.15Q230.33-22.15 229.15-21.23 227.98-20.3 227.98-18.85L227.98-18.85Q227.98-17.95 228.33-17.28 228.68-16.6 229.7-15.95 230.73-15.3 231.2-15.08 231.68-14.85 233.28-14.15L233.28-14.15Q236.48-12.85 238.28-11.2 240.08-9.55 240.08-6.75Z" opacity="1" transform="matrix(1,0,0,1,0,0)" fill="#ff4057" class="wordmark-text-0" data-fill-palette-color="primary" id="text-0"></path></svg></g></svg></g><g transform="matrix(1,0,0,1,165.28780799999993,94.97566556892728)"><svg viewBox="0 0 232.209792 24.145184177797933" height="24.145184177797933" width="232.209792"><g transform="matrix(1,0,0,1,0,0)"><svg width="232.209792" viewBox="3.25 -37.6 440.9 45.85" height="24.145184177797933" data-palette-color="#dcdcdc"><path d="M3.25-18.45L3.25-18.45Q3.25-24.6 5.18-28.88 7.1-33.15 10.65-35.38 14.2-37.6 19.1-37.6L19.1-37.6Q24-37.6 27.58-35.38 31.15-33.15 33.05-28.88 34.95-24.6 34.95-18.45L34.95-18.45Q34.95-12.3 33.13-8.33 31.3-4.35 27.95-2.1L27.95-2.1Q27.75-1.9 27.75-1.65L27.75-1.65Q27.75-1.05 28.65-0.15 29.55 0.75 31.03 1.5 32.5 2.25 34.1 2.5L34.1 2.5Q34.45 2.55 34.52 2.7 34.6 2.85 34.6 2.95L34.6 2.95 34.6 5.3Q34.6 5.85 34.3 6.03 34 6.2 33.25 6.2L33.25 6.2Q31.05 6.2 28.6 4.88 26.15 3.55 23.8 0.3L23.8 0.3Q23.55 0 23.05 0.1L23.05 0.1Q22.1 0.3 21.1 0.4 20.1 0.5 19.1 0.5L19.1 0.5Q14.25 0.5 10.7-1.65 7.15-3.8 5.2-8.05 3.25-12.3 3.25-18.45L3.25-18.45ZM8.25-18.35L8.25-18.35Q8.25-10.55 11-6.85 13.75-3.15 19.1-3.15L19.1-3.15Q24.5-3.15 27.23-6.85 29.95-10.55 29.95-18.4L29.95-18.4Q29.95-26.2 27.25-30.08 24.55-33.95 19.1-33.95L19.1-33.95Q13.7-33.95 10.98-30.08 8.25-26.2 8.25-18.35L8.25-18.35ZM51.1-2.8L51.1-2.8Q53.25-2.8 55.22-3.98 57.2-5.15 59.15-7.15L59.15-7.15 59.15-25.75Q59.15-26.5 59.95-26.5L59.95-26.5 62.7-26.5Q63.4-26.5 63.4-25.8L63.4-25.8 63.3-0.65Q63.3 0 62.75 0L62.75 0 59.85 0Q59.3 0 59.3-0.55L59.3-0.55 59.3-3.5Q59.3-3.75 59.2-3.8 59.1-3.85 58.85-3.65L58.85-3.65Q56.1-1.3 53.97-0.4 51.85 0.5 49.75 0.5L49.75 0.5Q47.45 0.5 45.65-0.45 43.85-1.4 42.8-3.13 41.75-4.85 41.75-7.15L41.75-7.15 41.75-25.7Q41.75-26.5 42.5-26.5L42.5-26.5 45.3-26.5Q45.95-26.5 45.95-25.8L45.95-25.8 45.95-8.25Q45.95-5.8 47.32-4.3 48.7-2.8 51.1-2.8L51.1-2.8ZM86.3-3.2L86.3-3.2Q84.45-1.4 82.27-0.45 80.1 0.5 77.4 0.5L77.4 0.5Q73.5 0.5 71.27-1.5 69.05-3.5 69.05-6.75L69.05-6.75Q69.05-9.4 70.55-11.33 72.05-13.25 75-14.38 77.95-15.5 82.25-15.75L82.25-15.75 86.15-16.05Q86.45-16.1 86.7-16.25 86.95-16.4 86.95-16.8L86.95-16.8 86.95-18.15Q86.95-20.85 85.27-22.43 83.6-24 80.75-24L80.75-24Q78.55-24 76.77-23 75-22 73.6-20L73.6-20Q73.4-19.75 73.27-19.68 73.15-19.6 72.85-19.7L72.85-19.7 70.15-20.6Q70-20.7 69.92-20.85 69.85-21 70.05-21.4L70.05-21.4Q71.55-24 74.27-25.5 77-27 80.95-27L80.95-27Q84.3-27 86.52-25.98 88.75-24.95 89.87-23.03 91-21.1 91-18.45L91-18.45 91-0.75Q91-0.3 90.85-0.15 90.7 0 90.35 0L90.35 0 87.8 0Q87.45 0 87.3-0.23 87.15-0.45 87.1-0.8L87.1-0.8 87.05-3.1Q86.9-3.8 86.3-3.2L86.3-3.2ZM86.95-12.7L86.95-12.7Q86.95-13.55 86.25-13.5L86.25-13.5 82.95-13.2Q80.65-13.1 78.85-12.63 77.05-12.15 75.8-11.4 74.55-10.65 73.9-9.63 73.25-8.6 73.25-7.25L73.25-7.25Q73.25-5.05 74.77-3.83 76.3-2.6 78.9-2.6L78.9-2.6Q80.5-2.6 81.97-3.18 83.45-3.75 84.55-4.65L84.55-4.65Q85.7-5.6 86.32-6.6 86.95-7.6 86.95-8.55L86.95-8.55 86.95-12.7ZM102.69-36.45L102.69-0.85Q102.69-0.35 102.49-0.18 102.29 0 101.79 0L101.79 0 99.19 0Q98.44 0 98.44-0.7L98.44-0.7 98.49-36.4Q98.49-37.1 99.09-37.1L99.09-37.1 102.09-37.1Q102.69-37.1 102.69-36.45L102.69-36.45ZM114.59-25.85L114.59-0.85Q114.59-0.35 114.42-0.18 114.24 0 113.69 0L113.69 0 111.14 0Q110.69 0 110.54-0.15 110.39-0.3 110.39-0.7L110.39-0.7 110.39-25.8Q110.39-26.5 110.99-26.5L110.99-26.5 114.04-26.5Q114.59-26.5 114.59-25.85L114.59-25.85ZM114.79-36.35L114.79-32.2Q114.79-31.25 113.89-31.25L113.89-31.25 110.99-31.25Q110.54-31.25 110.39-31.48 110.24-31.7 110.24-32.1L110.24-32.1 110.24-36.3Q110.24-37.1 110.94-37.1L110.94-37.1 114.09-37.1Q114.79-37.1 114.79-36.35L114.79-36.35ZM135.69-23.35L129.34-23.35Q128.94-23.35 128.94-22.95L128.94-22.95 128.94-7.1Q128.94-4.75 129.74-3.95 130.54-3.15 132.14-3.15L132.14-3.15 135.59-3.15Q135.84-3.15 135.99-3.03 136.14-2.9 136.14-2.6L136.14-2.6 136.09-0.9Q136.09-0.4 135.49-0.25L135.49-0.25Q134.99-0.15 134.06-0.1 133.14-0.05 132.26-0.03 131.39 0 130.79 0L130.79 0Q127.64 0 126.19-1.48 124.74-2.95 124.74-6.15L124.74-6.15 124.74-22.85Q124.74-23.35 124.24-23.35L124.24-23.35 120.24-23.35Q119.69-23.35 119.69-23.9L119.69-23.9 119.69-26Q119.69-26.5 120.19-26.5L120.19-26.5 124.44-26.5Q124.79-26.5 124.79-26.9L124.79-26.9 125.34-34.85Q125.39-35.5 125.89-35.5L125.89-35.5 128.39-35.5Q128.99-35.5 128.99-34.8L128.99-34.8 128.99-26.9Q128.99-26.5 129.39-26.5L129.39-26.5 135.69-26.5Q136.24-26.5 136.24-26.05L136.24-26.05 136.24-23.9Q136.24-23.35 135.69-23.35L135.69-23.35ZM143.14 8.25L143.14 8.25Q141.69 8.25 140.89 8.15 140.09 8.05 140.09 7.6L140.09 7.6 140.09 5.65Q140.09 5.3 140.36 5.15 140.64 5 141.49 5L141.49 5 144.64 5Q145.74 5 146.64 4.28 147.54 3.55 148.14 2.45 148.74 1.35 148.94 0.23 149.14-0.9 148.79-1.75L148.79-1.75 139.24-25.65Q139.14-26 139.26-26.25 139.39-26.5 139.79-26.5L139.79-26.5 142.89-26.5Q143.19-26.5 143.39-26.38 143.59-26.25 143.69-25.95L143.69-25.95 151.14-6.55Q151.34-6.1 151.59-6.1 151.84-6.1 152.04-6.7L152.04-6.7 159.39-25.95Q159.54-26.25 159.69-26.38 159.84-26.5 160.09-26.5L160.09-26.5 162.44-26.5Q162.79-26.5 162.94-26.28 163.09-26.05 162.94-25.75L162.94-25.75 151.94 2.35Q151.24 4.15 150.39 5.3 149.54 6.45 148.46 7.08 147.39 7.7 146.09 7.98 144.79 8.25 143.14 8.25L143.14 8.25ZM189.88-27L189.88-27Q192.48-27 194.46-26.18 196.43-25.35 197.86-23.93 199.28-22.5 200.23-20.8L200.23-20.8Q200.53-20.2 199.98-20.05L199.98-20.05 197.23-19.4Q196.88-19.25 196.58-19.7L196.58-19.7Q195.58-21.15 194.61-22.05 193.63-22.95 192.53-23.43 191.43-23.9 190.13-23.9L190.13-23.9Q187.58-23.9 185.66-22.63 183.73-21.35 182.68-18.95 181.63-16.55 181.63-13.25L181.63-13.25Q181.63-9.9 182.71-7.5 183.78-5.1 185.71-3.85 187.63-2.6 190.23-2.6L190.23-2.6Q192.63-2.6 194.38-3.8 196.13-5 197.58-7.3L197.58-7.3Q197.73-7.55 197.86-7.58 197.98-7.6 198.23-7.5L198.23-7.5 200.38-6.7Q200.73-6.55 200.58-6.05L200.58-6.05Q199.83-4.75 198.83-3.55 197.83-2.35 196.51-1.45 195.18-0.55 193.53-0.03 191.88 0.5 189.88 0.5L189.88 0.5Q186.18 0.5 183.36-1.23 180.53-2.95 178.93-6.03 177.33-9.1 177.33-13.15L177.33-13.15Q177.33-17.25 178.96-20.35 180.58-23.45 183.41-25.23 186.23-27 189.88-27L189.88-27ZM221.23-3.2L221.23-3.2Q219.38-1.4 217.2-0.45 215.03 0.5 212.33 0.5L212.33 0.5Q208.43 0.5 206.2-1.5 203.98-3.5 203.98-6.75L203.98-6.75Q203.98-9.4 205.48-11.33 206.98-13.25 209.93-14.38 212.88-15.5 217.18-15.75L217.18-15.75 221.08-16.05Q221.38-16.1 221.63-16.25 221.88-16.4 221.88-16.8L221.88-16.8 221.88-18.15Q221.88-20.85 220.2-22.43 218.53-24 215.68-24L215.68-24Q213.48-24 211.7-23 209.93-22 208.53-20L208.53-20Q208.33-19.75 208.2-19.68 208.08-19.6 207.78-19.7L207.78-19.7 205.08-20.6Q204.93-20.7 204.85-20.85 204.78-21 204.98-21.4L204.98-21.4Q206.48-24 209.2-25.5 211.93-27 215.88-27L215.88-27Q219.23-27 221.45-25.98 223.68-24.95 224.8-23.03 225.93-21.1 225.93-18.45L225.93-18.45 225.93-0.75Q225.93-0.3 225.78-0.15 225.63 0 225.28 0L225.28 0 222.73 0Q222.38 0 222.23-0.23 222.08-0.45 222.03-0.8L222.03-0.8 221.98-3.1Q221.83-3.8 221.23-3.2L221.23-3.2ZM221.88-12.7L221.88-12.7Q221.88-13.55 221.18-13.5L221.18-13.5 217.88-13.2Q215.58-13.1 213.78-12.63 211.98-12.15 210.73-11.4 209.48-10.65 208.83-9.63 208.18-8.6 208.18-7.25L208.18-7.25Q208.18-5.05 209.7-3.83 211.23-2.6 213.83-2.6L213.83-2.6Q215.43-2.6 216.9-3.18 218.38-3.75 219.48-4.65L219.48-4.65Q220.63-5.6 221.25-6.6 221.88-7.6 221.88-8.55L221.88-8.55 221.88-12.7ZM234.08 0L234.08 0Q233.73 0 233.55-0.18 233.38-0.35 233.38-0.65L233.38-0.65 233.38-25.85Q233.38-26.5 233.93-26.5L233.93-26.5 236.83-26.5Q237.38-26.5 237.38-25.95L237.38-25.95 237.38-22.7Q237.38-22.4 237.53-22.35 237.68-22.3 237.93-22.55L237.93-22.55Q239.23-24.1 240.5-25.08 241.78-26.05 243.08-26.53 244.38-27 245.68-27L245.68-27Q247.43-27 247.43-26.35L247.43-26.35 247.43-23.35Q247.43-22.85 246.98-22.95L246.98-22.95Q246.53-23 245.95-23.05 245.38-23.1 244.73-23.1L244.73-23.1Q243.63-23.1 242.38-22.63 241.13-22.15 240.05-21.3 238.98-20.45 238.28-19.4 237.58-18.35 237.58-17.3L237.58-17.3 237.58-0.75Q237.58 0 236.83 0L236.83 0 234.08 0ZM254.67-11.6L254.67-11.6Q254.67-9.15 255.85-7.13 257.02-5.1 259-3.9 260.97-2.7 263.42-2.7L263.42-2.7Q265.92-2.7 267.87-3.73 269.82-4.75 271.22-6.85L271.22-6.85Q271.42-7.05 271.55-7.08 271.67-7.1 271.92-7L271.92-7 274.02-5.95Q274.47-5.7 274.12-5.25L274.12-5.25Q272.77-3.25 271.15-1.98 269.52-0.7 267.52-0.1 265.52 0.5 263.02 0.5L263.02 0.5Q259.32 0.5 256.47-1.2 253.62-2.9 251.97-5.95 250.32-9 250.32-13L250.32-13Q250.32-17.35 252-20.48 253.67-23.6 256.55-25.3 259.42-27 262.97-27L262.97-27Q266.62-27 269.32-25.4 272.02-23.8 273.52-20.75 275.02-17.7 275.02-13.4L275.02-13.4Q275.02-13.05 274.95-12.7 274.87-12.35 274.27-12.35L274.27-12.35 255.12-12.35Q254.92-12.35 254.8-12.13 254.67-11.9 254.67-11.6L254.67-11.6ZM254.77-15.1L269.97-15.1Q270.52-15.1 270.67-15.23 270.82-15.35 270.82-15.8L270.82-15.8Q270.82-17.95 269.9-19.83 268.97-21.7 267.25-22.85 265.52-24 263.07-24L263.07-24Q260.37-24 258.52-22.73 256.67-21.45 255.72-19.4 254.77-17.35 254.77-15.1L254.77-15.1ZM305.02-26.5L305.02-26.5Q305.27-26.5 305.39-26.35 305.52-26.2 305.52-26L305.52-26 305.52-23.85Q305.52-23.35 305.02-23.35L305.02-23.35 299.32-23.35Q298.92-23.35 298.92-22.95L298.92-22.95 298.92-0.7Q298.92 0 298.32 0L298.32 0 295.27 0Q294.72 0 294.72-0.65L294.72-0.65 294.72-23Q294.72-23.35 294.37-23.35L294.37-23.35 289.47-23.35Q288.97-23.35 288.97-23.85L288.97-23.85 288.97-26Q288.97-26.2 289.09-26.35 289.22-26.5 289.52-26.5L289.52-26.5 294.27-26.5Q294.72-26.5 294.72-27L294.72-27 294.72-30.65Q294.72-33.8 296.27-35.45 297.82-37.1 300.97-37.1L300.97-37.1 305.12-37.1Q305.77-37.1 305.77-36.5L305.77-36.5 305.77-34.55Q305.77-34.3 305.64-34.18 305.52-34.05 305.22-34.05L305.22-34.05 301.72-34.05Q300.17-34.05 299.49-33.08 298.82-32.1 298.82-30.45L298.82-30.45 298.82-26.95Q298.82-26.5 299.27-26.5L299.27-26.5 305.02-26.5ZM320.67 0.5L320.67 0.5Q316.92 0.5 314.04-1.23 311.17-2.95 309.59-6.03 308.02-9.1 308.02-13.1L308.02-13.1Q308.02-17.25 309.64-20.38 311.27-23.5 314.12-25.25 316.97-27 320.72-27L320.72-27Q324.52-27 327.34-25.23 330.17-23.45 331.74-20.33 333.32-17.2 333.32-13.15L333.32-13.15Q333.32-9.15 331.72-6.08 330.12-3 327.29-1.25 324.47 0.5 320.67 0.5L320.67 0.5ZM320.77-2.65L320.77-2.65Q323.37-2.65 325.22-3.93 327.07-5.2 328.04-7.58 329.02-9.95 329.02-13.25L329.02-13.25Q329.02-16.55 328.02-18.93 327.02-21.3 325.17-22.6 323.32-23.9 320.72-23.9L320.72-23.9Q318.17-23.9 316.27-22.6 314.37-21.3 313.34-18.93 312.32-16.55 312.32-13.25L312.32-13.25Q312.32-10 313.34-7.6 314.37-5.2 316.27-3.93 318.17-2.65 320.77-2.65L320.77-2.65ZM340.21 0L340.21 0Q339.86 0 339.69-0.18 339.51-0.35 339.51-0.65L339.51-0.65 339.51-25.85Q339.51-26.5 340.06-26.5L340.06-26.5 342.96-26.5Q343.51-26.5 343.51-25.95L343.51-25.95 343.51-22.7Q343.51-22.4 343.66-22.35 343.81-22.3 344.06-22.55L344.06-22.55Q345.36-24.1 346.64-25.08 347.91-26.05 349.21-26.53 350.51-27 351.81-27L351.81-27Q353.56-27 353.56-26.35L353.56-26.35 353.56-23.35Q353.56-22.85 353.11-22.95L353.11-22.95Q352.66-23 352.09-23.05 351.51-23.1 350.86-23.1L350.86-23.1Q349.76-23.1 348.51-22.63 347.26-22.15 346.19-21.3 345.11-20.45 344.41-19.4 343.71-18.35 343.71-17.3L343.71-17.3 343.71-0.75Q343.71 0 342.96 0L342.96 0 340.21 0ZM373.61-36.45L373.61-0.85Q373.61-0.35 373.41-0.18 373.21 0 372.71 0L372.71 0 370.11 0Q369.36 0 369.36-0.7L369.36-0.7 369.41-36.4Q369.41-37.1 370.01-37.1L370.01-37.1 373.01-37.1Q373.61-37.1 373.61-36.45L373.61-36.45ZM385.5-25.85L385.5-0.85Q385.5-0.35 385.33-0.18 385.15 0 384.6 0L384.6 0 382.06 0Q381.6 0 381.45-0.15 381.31-0.3 381.31-0.7L381.31-0.7 381.31-25.8Q381.31-26.5 381.9-26.5L381.9-26.5 384.95-26.5Q385.5-26.5 385.5-25.85L385.5-25.85ZM385.7-36.35L385.7-32.2Q385.7-31.25 384.81-31.25L384.81-31.25 381.9-31.25Q381.45-31.25 381.31-31.48 381.15-31.7 381.15-32.1L381.15-32.1 381.15-36.3Q381.15-37.1 381.85-37.1L381.85-37.1 385-37.1Q385.7-37.1 385.7-36.35L385.7-36.35ZM406.65-26.5L406.65-26.5Q406.9-26.5 407.03-26.35 407.15-26.2 407.15-26L407.15-26 407.15-23.85Q407.15-23.35 406.65-23.35L406.65-23.35 400.95-23.35Q400.55-23.35 400.55-22.95L400.55-22.95 400.55-0.7Q400.55 0 399.95 0L399.95 0 396.9 0Q396.35 0 396.35-0.65L396.35-0.65 396.35-23Q396.35-23.35 396-23.35L396-23.35 391.1-23.35Q390.6-23.35 390.6-23.85L390.6-23.85 390.6-26Q390.6-26.2 390.73-26.35 390.85-26.5 391.15-26.5L391.15-26.5 395.9-26.5Q396.35-26.5 396.35-27L396.35-27 396.35-30.65Q396.35-33.8 397.9-35.45 399.45-37.1 402.6-37.1L402.6-37.1 406.75-37.1Q407.4-37.1 407.4-36.5L407.4-36.5 407.4-34.55Q407.4-34.3 407.28-34.18 407.15-34.05 406.85-34.05L406.85-34.05 403.35-34.05Q401.8-34.05 401.13-33.08 400.45-32.1 400.45-30.45L400.45-30.45 400.45-26.95Q400.45-26.5 400.9-26.5L400.9-26.5 406.65-26.5ZM414-11.6L414-11.6Q414-9.15 415.17-7.13 416.35-5.1 418.32-3.9 420.3-2.7 422.75-2.7L422.75-2.7Q425.25-2.7 427.2-3.73 429.15-4.75 430.55-6.85L430.55-6.85Q430.75-7.05 430.87-7.08 431-7.1 431.25-7L431.25-7 433.35-5.95Q433.8-5.7 433.45-5.25L433.45-5.25Q432.1-3.25 430.47-1.98 428.85-0.7 426.85-0.1 424.85 0.5 422.35 0.5L422.35 0.5Q418.65 0.5 415.8-1.2 412.95-2.9 411.3-5.95 409.65-9 409.65-13L409.65-13Q409.65-17.35 411.32-20.48 413-23.6 415.87-25.3 418.75-27 422.3-27L422.3-27Q425.95-27 428.65-25.4 431.35-23.8 432.85-20.75 434.35-17.7 434.35-13.4L434.35-13.4Q434.35-13.05 434.27-12.7 434.2-12.35 433.6-12.35L433.6-12.35 414.45-12.35Q414.25-12.35 414.12-12.13 414-11.9 414-11.6L414-11.6ZM414.1-15.1L429.3-15.1Q429.85-15.1 430-15.23 430.15-15.35 430.15-15.8L430.15-15.8Q430.15-17.95 429.22-19.83 428.3-21.7 426.57-22.85 424.85-24 422.4-24L422.4-24Q419.7-24 417.85-22.73 416-21.45 415.05-19.4 414.1-17.35 414.1-15.1L414.1-15.1ZM444.15-5.05L444.15-0.8Q444.15 0 443.25 0L443.25 0 439.75 0Q439 0 439-0.7L439-0.7 439-5Q439-5.65 439.55-5.65L439.55-5.65 443.65-5.65Q444.15-5.65 444.15-5.05L444.15-5.05Z" opacity="1" transform="matrix(1,0,0,1,0,0)" fill="#dcdcdc" class="slogan-text-1" data-fill-palette-color="secondary" id="text-1"></path></svg></g></svg></g></svg></g></svg></g><g transform="matrix(1,0,0,1,414.7098097273904,0)"><svg viewBox="0 0 245.65351679999995 225.29111724303203" height="225.29111724303203" width="245.65351679999995"><g><svg xmlns="http://www.w3.org/2000/svg" xmlns:xlink="http://www.w3.org/1999/xlink" version="1.1" x="0" y="0" viewBox="5 8.731999999999989 89.998 82.53800000000001" enable-background="new 0 0 100 100" xml:space="preserve" height="225.29111724303203" width="245.65351679999995" class="icon-icon-0" data-fill-palette-color="accent" id="icon-0"><path fill-rule="evenodd" clip-rule="evenodd" d="M29.986 91.226c-0.363-0.025-0.727-0.045-1.09-0.078-2.034-0.191-3.899-0.854-5.555-2.053-2.857-2.069-4.684-4.82-5.412-8.282-0.272-1.301-0.348-2.614-0.265-3.939 0.094-1.555 0.404-3.063 0.898-4.538 0.789-2.354 1.979-4.49 3.485-6.459 1.135-1.484 2.42-2.828 3.836-4.047 1.325-1.142 2.528-2.403 3.655-3.738 1.418-1.683 2.701-3.467 3.968-5.263 1.12-1.588 2.221-3.186 3.41-4.721 0.894-1.158 1.837-2.273 2.888-3.292 1.315-1.273 2.766-2.351 4.476-3.05 1.283-0.525 2.616-0.803 4.003-0.832 1.568-0.036 3.117 0.119 4.642 0.492 2.334 0.573 4.356 1.708 6.097 3.36 1.191 1.135 2.199 2.419 3.136 3.763 0.994 1.425 1.907 2.902 2.849 4.362 1.062 1.644 2.158 3.262 3.383 4.792 1.22 1.525 2.566 2.932 4.036 4.219 1.778 1.557 3.356 3.29 4.7 5.236 1.146 1.669 2.08 3.444 2.732 5.362 0.508 1.494 0.827 3.022 0.908 4.601 0.125 2.398-0.289 4.691-1.377 6.848-1.007 1.999-2.465 3.604-4.296 4.879-1.346 0.937-2.798 1.649-4.397 2.045-0.566 0.142-1.141 0.244-1.722 0.3-0.081 0.008-0.159 0.023-0.237 0.035-0.076 0.043-0.16 0.011-0.24 0.021-0.066 0.009-0.136-0.021-0.199 0.021-0.496 0-0.994 0-1.49 0-0.059-0.043-0.126-0.013-0.189-0.021-0.058 0-0.113 0-0.17 0-0.047 0-0.098 0-0.144 0-1.271-0.041-2.505-0.306-3.735-0.591-2.084-0.486-4.127-1.125-6.2-1.653-1.679-0.426-3.372-0.772-5.095-0.969-1.194-0.137-2.391-0.152-3.585-0.111-0.955 0.032-1.903 0.179-2.842 0.354-1.854 0.349-3.671 0.848-5.489 1.344-1.923 0.528-3.846 1.053-5.815 1.375-0.801 0.129-1.603 0.24-2.417 0.232-0.167-0.002-0.333 0.023-0.502 0.019C30.41 91.237 30.198 91.275 29.986 91.226z" fill="#dcdcdc" data-fill-palette-color="accent"></path><path fill-rule="evenodd" clip-rule="evenodd" d="M66.723 8.768c2.68 0.322 4.727 1.684 6.291 3.832 1.072 1.473 1.746 3.125 2.164 4.891 0.357 1.521 0.492 3.065 0.441 4.627-0.094 2.87-0.768 5.596-2.014 8.182-0.863 1.792-1.977 3.408-3.397 4.802-1.265 1.239-2.696 2.229-4.366 2.846-1.173 0.433-2.379 0.647-3.629 0.573-2.164-0.125-4.001-0.985-5.545-2.487-1.316-1.282-2.213-2.832-2.834-4.548-0.434-1.2-0.705-2.437-0.846-3.702-0.098-0.867-0.137-1.735-0.109-2.603 0.064-2.049 0.432-4.044 1.098-5.981 0.707-2.062 1.709-3.963 3.077-5.663 1.151-1.43 2.496-2.639 4.11-3.532 1.186-0.657 2.449-1.082 3.801-1.235 0.041-0.023 0.086-0.013 0.128-0.016 0.043 0 0.086 0 0.128 0 0.062-0.008 0.128 0.022 0.183-0.022 0.295 0 0.585 0 0.878 0 0.057 0.045 0.121 0.015 0.183 0.022 0.044 0 0.085 0 0.129 0C66.635 8.755 66.681 8.744 66.723 8.768z" fill="#dcdcdc" data-fill-palette-color="accent"></path><path fill-rule="evenodd" clip-rule="evenodd" d="M5.081 40.413c0.042-0.818 0.189-1.621 0.404-2.411 0.416-1.535 1.097-2.934 2.158-4.132 1.186-1.337 2.652-2.202 4.408-2.551 1.426-0.282 2.833-0.161 4.216 0.265 1.59 0.491 2.996 1.326 4.246 2.413 1.942 1.683 3.334 3.754 4.298 6.124 0.504 1.241 0.853 2.526 1.046 3.851 0.094 0.643 0.139 1.29 0.152 1.94 0.023 1.234-0.101 2.448-0.407 3.642-0.408 1.593-1.095 3.043-2.19 4.284-1.257 1.424-2.824 2.31-4.702 2.615-1.378 0.224-2.733 0.073-4.059-0.355-1.783-0.579-3.311-1.573-4.657-2.86-1.313-1.252-2.356-2.706-3.169-4.323-0.797-1.586-1.347-3.258-1.612-5.017-0.046-0.311-0.084-0.622-0.126-0.932-0.033-0.142-0.02-0.287-0.054-0.428-0.016-0.059-0.007-0.115-0.01-0.176C5.012 42.287 5.046 42.207 5 42.132c0-0.38 0-0.759 0-1.14 0.071-0.104 0.036-0.22 0.044-0.331C5.05 40.578 5.029 40.49 5.081 40.413z" fill="#dcdcdc" data-fill-palette-color="accent"></path><path fill-rule="evenodd" clip-rule="evenodd" d="M23.897 22.127c0.009-2.263 0.331-4.304 1.088-6.268 0.571-1.485 1.355-2.843 2.447-4.012 1.176-1.262 2.573-2.167 4.258-2.593 1.685-0.428 3.341-0.306 4.969 0.283 1.434 0.52 2.685 1.34 3.796 2.375 1.774 1.65 3.044 3.642 3.949 5.875 0.575 1.42 0.971 2.888 1.197 4.401 0.128 0.858 0.202 1.723 0.22 2.594 0.019 1.096-0.05 2.188-0.231 3.27-0.376 2.261-1.143 4.367-2.511 6.229-0.851 1.155-1.884 2.11-3.152 2.798-1.417 0.768-2.934 1.089-4.539 0.965-1.451-0.111-2.789-0.585-4.037-1.325-1.628-0.964-2.946-2.264-4.043-3.794-1.301-1.817-2.195-3.826-2.761-5.985-0.31-1.181-0.508-2.382-0.598-3.6C23.913 22.883 23.882 22.423 23.897 22.127z" fill="#dcdcdc" data-fill-palette-color="accent"></path><path fill-rule="evenodd" clip-rule="evenodd" d="M94.998 41.739c0 0.087 0 0.175 0 0.263-0.1 2.182-0.684 4.236-1.627 6.195-0.742 1.535-1.689 2.934-2.861 4.174-1.504 1.594-3.249 2.837-5.324 3.583-1.243 0.447-2.523 0.667-3.846 0.594-1.953-0.11-3.658-0.818-5.092-2.15-1.184-1.101-1.965-2.455-2.457-3.979-0.443-1.366-0.622-2.774-0.577-4.208 0.097-3.153 1.094-6.019 2.821-8.642 0.583-0.888 1.252-1.708 2.002-2.458 1.543-1.537 3.307-2.719 5.396-3.389 1.188-0.378 2.402-0.551 3.646-0.454 1.9 0.147 3.557 0.866 4.947 2.177 1.254 1.183 2.045 2.644 2.523 4.284 0.264 0.906 0.418 1.833 0.449 2.778 0 0.088 0 0.177 0 0.265C94.988 41.094 94.989 41.416 94.998 41.739z" fill="#dcdcdc" data-fill-palette-color="accent"></path></svg></g></svg></g></svg></g></svg></g></svg></g><defs></defs></svg><rect width="395.52" height="247.2" fill="none" stroke="none" visibility="hidden"></rect></g></svg></g></svg>